<svg version="1.2" xmlns="http://www.w3.org/2000/svg" viewBox="0 0 512 512" width="512" height="512">
	<style>
		.s0 { fill: #f2da01;stroke: #000000;stroke-width: 5 }
	</style>
	<path id="dlG" class="s0" aria-label="dlG"  d="m104.1 335h-97.1v-169.2h99.9q20.2 0 35.7 5.4 15.5 5.4 26.1 14.5 10.7 9.1 17.7 24.7 7.2 15.6 7.2 40.6-1.3 23.1-7.7 39.2-6.5 16.2-17.2 25.6-10.6 9.4-26.1 14.5-15.3 5.2-38.5 4.7zm-8.6-127.3h-32v85.1h32.2q10.9 0 17.6-4.6 6.7-4.6 10.9-11.8 4.2-7.3 5.4-26-0.3-17.1-4.8-25.2-4.3-8.2-11.2-12.8-7-4.7-18.1-4.7zm253.3 127.3h-146.8v-169.2h55.1v118.8h91.6zm117.6-50.4v-34.2h51.4v84.6h-72.7q-26.7 0-48.4-9.7-21.6-9.9-34-29.4-12.4-19.6-12.4-48 0-19.9 7.4-35.5 7.5-15.7 20.6-26 13.2-10.4 26.7-16.6 13.5-6.4 39.7-7.8 27.2 1.4 41.5 6.6 14.3 5.2 28.8 18.8l-33.2 37q-8.5-7-15-10.1-6.6-3-21.6-4-14.5 1.9-21.3 6.3-6.8 4.5-12 11.5-5.1 7.1-6.5 21.6 1.4 14.5 6.5 20.4 5.2 5.8 12.9 9.6 7.7 3.7 16.6 4.7 8.9 0.9 25 0.2z"/>
</svg>
